<svg width="89" height="110" viewBox="0 0 89 110" fill="none" xmlns="http://www.w3.org/2000/svg">
<path d="M5.44387 94.9098H6.28783V96.7316H1.80195C1.51303 96.7316 1.25706 96.6931 1.03403 96.6163C0.811005 96.5394 0.620926 96.419 0.463794 96.255C0.31173 96.091 0.195148 95.8835 0.114048 95.6324C0.0380159 95.3761 0 95.0687 0 94.7099V92.0119C0 91.2996 0.154598 90.7871 0.463794 90.4745C0.778058 90.1568 1.22411 89.998 1.80195 89.998H3.64952C4.22737 89.998 4.66835 90.1568 4.97248 90.4745C5.28167 90.7871 5.4388 91.2996 5.44387 92.0119V94.9098ZM3.64192 94.9098V91.812H1.80195V94.9098H3.64192ZM2.53186 87.8226C2.53186 87.9456 2.50651 88.0635 2.45583 88.1762C2.41021 88.289 2.34431 88.3863 2.25814 88.4683C2.17704 88.5503 2.08074 88.6169 1.96922 88.6682C1.86278 88.7143 1.7462 88.7374 1.61948 88.7374C1.49783 88.7374 1.38124 88.7143 1.26973 88.6682C1.16329 88.6169 1.06951 88.5503 0.988413 88.4683C0.907312 88.3863 0.841418 88.289 0.79073 88.1762C0.745111 88.0635 0.722302 87.9456 0.722302 87.8226C0.722302 87.6996 0.745111 87.5818 0.79073 87.469C0.841418 87.3563 0.907312 87.2589 0.988413 87.1769C1.06951 87.0949 1.16329 87.0309 1.26973 86.9848C1.38124 86.9335 1.49783 86.9079 1.61948 86.9079C1.7462 86.9079 1.86278 86.9335 1.96922 86.9848C2.08074 87.0309 2.17704 87.0949 2.25814 87.1769C2.34431 87.2589 2.41021 87.3563 2.45583 87.469C2.50651 87.5818 2.53186 87.6996 2.53186 87.8226ZM4.71397 87.8226C4.71397 87.9456 4.68862 88.0635 4.63794 88.1762C4.59232 88.289 4.52896 88.3863 4.44786 88.4683C4.36676 88.5503 4.27045 88.6169 4.15894 88.6682C4.04742 88.7143 3.93084 88.7374 3.80919 88.7374C3.68754 88.7374 3.57096 88.7143 3.45944 88.6682C3.353 88.6169 3.25923 88.5503 3.17813 88.4683C3.09703 88.3863 3.03113 88.289 2.98044 88.1762C2.93483 88.0635 2.91202 87.9456 2.91202 87.8226C2.91202 87.6996 2.93483 87.5818 2.98044 87.469C3.03113 87.3563 3.09703 87.2589 3.17813 87.1769C3.25923 87.0949 3.353 87.0309 3.45944 86.9848C3.57096 86.9335 3.68754 86.9079 3.80919 86.9079C3.93084 86.9079 4.04742 86.9335 4.15894 86.9848C4.27045 87.0309 4.36676 87.0949 4.44786 87.1769C4.52896 87.2589 4.59232 87.3563 4.63794 87.469C4.68862 87.5818 4.71397 87.6996 4.71397 87.8226Z" fill="white"/>
<path d="M8.66762 98.8915C8.66762 99.0196 8.64227 99.1375 8.59159 99.2451C8.54597 99.3579 8.48261 99.4552 8.40151 99.5372C8.32041 99.6243 8.2241 99.691 8.11259 99.7371C8.00614 99.7883 7.8921 99.8139 7.77044 99.8139C7.64879 99.8139 7.53221 99.7883 7.4207 99.7371C7.31425 99.691 7.22048 99.6243 7.13938 99.5372C7.05828 99.4552 6.99239 99.3579 6.9417 99.2451C6.89608 99.1375 6.87327 99.0196 6.87327 98.8915C6.87327 98.7685 6.89608 98.6507 6.9417 98.5379C6.99239 98.4303 7.05828 98.3355 7.13938 98.2535C7.22048 98.1715 7.31425 98.1049 7.4207 98.0537C7.53221 98.0076 7.64879 97.9845 7.77044 97.9845C7.8921 97.9845 8.00614 98.0076 8.11259 98.0537C8.2241 98.1049 8.32041 98.1715 8.40151 98.2535C8.48261 98.3355 8.54597 98.4303 8.59159 98.5379C8.64227 98.6507 8.66762 98.7685 8.66762 98.8915ZM10.8421 98.8915C10.8421 99.0196 10.8168 99.1375 10.7661 99.2451C10.7205 99.3579 10.6571 99.4552 10.576 99.5372C10.4949 99.6243 10.3986 99.691 10.2871 99.7371C10.1807 99.7883 10.0641 99.8139 9.93735 99.8139C9.8157 99.8139 9.69912 99.7883 9.5876 99.7371C9.48116 99.691 9.38739 99.6243 9.30629 99.5372C9.22519 99.4552 9.15929 99.3579 9.1086 99.2451C9.06298 99.1375 9.04017 99.0196 9.04017 98.8915C9.04017 98.7685 9.06298 98.6507 9.1086 98.5379C9.15929 98.4303 9.22519 98.3355 9.30629 98.2535C9.38739 98.1715 9.48116 98.1049 9.5876 98.0537C9.69912 98.0076 9.8157 97.9845 9.93735 97.9845C10.0641 97.9845 10.1807 98.0076 10.2871 98.0537C10.3986 98.1049 10.4949 98.1715 10.576 98.2535C10.6571 98.3355 10.7205 98.4303 10.7661 98.5379C10.8168 98.6507 10.8421 98.7685 10.8421 98.8915ZM9.65603 94.9098H11.3972V96.7316H6.19659V94.9098H7.84648V90.4054C7.84648 90.3029 7.88449 90.2132 7.96052 90.1363C8.03656 90.0543 8.13033 90.0133 8.24184 90.0133H9.26827C9.37471 90.0133 9.46595 90.0543 9.54198 90.1363C9.61802 90.2132 9.65603 90.3029 9.65603 90.4054V94.9098Z" fill="white"/>
<path d="M15.7538 94.9098V91.812H13.9138V94.9098H15.7538ZM11.3211 94.9098H12.1119V92.0119C12.1119 91.2996 12.2665 90.7871 12.5757 90.4745C12.8848 90.1568 13.3309 89.998 13.9138 89.998H15.7538C16.3367 89.998 16.7827 90.1568 17.0919 90.4745C17.4011 90.7871 17.5557 91.2996 17.5557 92.0119V94.7099C17.5557 95.0687 17.5152 95.3761 17.4341 95.6324C17.358 95.8835 17.244 96.091 17.0919 96.255C16.9399 96.419 16.7523 96.5394 16.5293 96.6163C16.3063 96.6931 16.0503 96.7316 15.7614 96.7316H11.3211V94.9098Z" fill="white"/>
<path d="M20.3537 94.9098H22.1937V87.9379C22.1937 87.8303 22.2291 87.7381 22.3001 87.6612C22.3711 87.5843 22.4598 87.5459 22.5662 87.5459H23.6003C23.7067 87.5459 23.7979 87.5843 23.874 87.6612C23.95 87.7381 23.988 87.8303 23.988 87.9379V94.9098H24.8396V96.7316H20.3461C20.0572 96.7316 19.8012 96.6931 19.5782 96.6163C19.3551 96.5394 19.1651 96.419 19.0079 96.255C18.8559 96.091 18.7393 95.8835 18.6582 95.6324C18.5822 95.3761 18.5441 95.0687 18.5441 94.7099V87.9379C18.5441 87.8303 18.5822 87.7381 18.6582 87.6612C18.7342 87.5843 18.8255 87.5459 18.9319 87.5459H19.9583C20.0698 87.5459 20.1636 87.5843 20.2396 87.6612C20.3157 87.7381 20.3537 87.8303 20.3537 87.9379V94.9098Z" fill="white"/>
<path d="M31.0666 94.9098H32.9065V90.4054C32.9065 90.3029 32.9446 90.2132 33.0206 90.1363C33.0966 90.0543 33.1879 90.0133 33.2943 90.0133H34.3283C34.4297 90.0133 34.5184 90.0543 34.5944 90.1363C34.6755 90.2132 34.7161 90.3029 34.7161 90.4054V94.7099C34.7161 95.0687 34.6755 95.3761 34.5944 95.6324C34.5184 95.8835 34.4018 96.091 34.2447 96.255C34.0926 96.419 33.9026 96.5394 33.6745 96.6163C33.4514 96.6931 33.1955 96.7316 32.9065 96.7316H24.7483V94.9098H25.6227V90.4054C25.6227 90.3029 25.6582 90.2132 25.7291 90.1363C25.8001 90.0543 25.8863 90.0133 25.9876 90.0133H27.0293C27.1357 90.0133 27.227 90.0543 27.303 90.1363C27.379 90.2132 27.417 90.3029 27.417 90.4054V94.9098H29.257V90.4054C29.257 90.3029 29.295 90.2132 29.3711 90.1363C29.4471 90.0543 29.5383 90.0133 29.6448 90.0133H30.6712C30.7777 90.0133 30.8689 90.0543 30.9449 90.1363C31.026 90.2132 31.0666 90.3029 31.0666 90.4054V94.9098Z" fill="white"/>
<path d="M40.4641 94.9098V87.9379C40.4641 87.8303 40.4996 87.7381 40.5705 87.6612C40.6466 87.5843 40.7403 87.5459 40.8519 87.5459H41.8859C41.9923 87.5459 42.0836 87.5843 42.1596 87.6612C42.2356 87.7381 42.2737 87.8303 42.2737 87.9379V94.7099C42.2635 95.4274 42.1064 95.9449 41.8023 96.2627C41.4981 96.5753 41.0546 96.7316 40.4717 96.7316H35.9934C35.8921 96.7316 35.8008 96.6931 35.7197 96.6163C35.6437 96.5394 35.6057 96.4472 35.6057 96.3395V95.2941C35.6057 95.1917 35.6437 95.102 35.7197 95.0251C35.8008 94.9482 35.8921 94.9098 35.9934 94.9098H36.8222V87.9379C36.8222 87.8303 36.8602 87.7381 36.9362 87.6612C37.0123 87.5843 37.1035 87.5459 37.2099 87.5459H38.2364C38.3428 87.5459 38.434 87.5843 38.5101 87.6612C38.5912 87.7381 38.6317 87.8303 38.6317 87.9379V94.9098H40.4641ZM36.0999 99.2221V98.6302C36.0999 98.3125 36.1683 98.0844 36.3052 97.9461C36.442 97.8077 36.6397 97.7385 36.8982 97.7385H37.6053C37.6813 97.7385 37.7447 97.7667 37.7954 97.8231C37.8511 97.8794 37.879 97.9461 37.879 98.0229V98.415C37.879 98.4918 37.8511 98.5584 37.7954 98.6148C37.7447 98.6712 37.6813 98.6994 37.6053 98.6994H37.0427V99.2221H37.6053C37.6813 99.2221 37.7447 99.2503 37.7954 99.3066C37.8511 99.3681 37.879 99.4373 37.879 99.5142V99.8908C37.879 99.9728 37.8511 100.042 37.7954 100.098C37.7447 100.155 37.6813 100.183 37.6053 100.183H35.9402C35.8591 100.183 35.7907 100.155 35.7349 100.098C35.6792 100.042 35.6513 99.9728 35.6513 99.8908V99.5142C35.6513 99.4373 35.6792 99.3681 35.7349 99.3066C35.7907 99.2503 35.8591 99.2221 35.9402 99.2221H36.0999Z" fill="white"/>
<path d="M43.4674 87.9379C43.4674 87.8303 43.5054 87.7381 43.5814 87.6612C43.6574 87.5843 43.7487 87.5459 43.8551 87.5459H44.8891C44.9905 87.5459 45.0792 87.5843 45.1553 87.6612C45.2313 87.7381 45.2693 87.8303 45.2693 87.9379V96.3933C45.2693 96.501 45.2313 96.5932 45.1553 96.6701C45.0792 96.7418 44.9905 96.7777 44.8891 96.7777H43.8551C43.7487 96.7777 43.6574 96.7418 43.5814 96.6701C43.5054 96.5932 43.4674 96.501 43.4674 96.3933V87.9379Z" fill="white"/>
<path d="M55.0318 94.9098H55.8757V96.7316H51.3899C51.1009 96.7316 50.845 96.6931 50.6219 96.6163C50.3989 96.5394 50.2088 96.419 50.0517 96.255C49.8996 96.091 49.7831 95.8835 49.702 95.6324C49.6259 95.3761 49.5879 95.0687 49.5879 94.7099V92.0119C49.5879 91.2996 49.7425 90.7871 50.0517 90.4745C50.366 90.1568 50.812 89.998 51.3899 89.998H53.2374C53.8153 89.998 54.2563 90.1568 54.5604 90.4745C54.8696 90.7871 55.0267 91.2996 55.0318 92.0119V94.9098ZM53.2298 94.9098V91.812H51.3899V94.9098H53.2298ZM52.1198 87.8226C52.1198 87.9456 52.0944 88.0635 52.0437 88.1762C51.9981 88.289 51.9322 88.3863 51.846 88.4683C51.7649 88.5503 51.6686 88.6169 51.5571 88.6682C51.4507 88.7143 51.3341 88.7374 51.2074 88.7374C51.0857 88.7374 50.9691 88.7143 50.8576 88.6682C50.7512 88.6169 50.6574 88.5503 50.5763 88.4683C50.4952 88.3863 50.4293 88.289 50.3786 88.1762C50.333 88.0635 50.3102 87.9456 50.3102 87.8226C50.3102 87.6996 50.333 87.5818 50.3786 87.469C50.4293 87.3563 50.4952 87.2589 50.5763 87.1769C50.6574 87.0949 50.7512 87.0309 50.8576 86.9848C50.9691 86.9335 51.0857 86.9079 51.2074 86.9079C51.3341 86.9079 51.4507 86.9335 51.5571 86.9848C51.6686 87.0309 51.7649 87.0949 51.846 87.1769C51.9322 87.2589 51.9981 87.3563 52.0437 87.469C52.0944 87.5818 52.1198 87.6996 52.1198 87.8226ZM54.3019 87.8226C54.3019 87.9456 54.2765 88.0635 54.2258 88.1762C54.1802 88.289 54.1169 88.3863 54.0358 88.4683C53.9547 88.5503 53.8584 88.6169 53.7468 88.6682C53.6353 88.7143 53.5187 88.7374 53.3971 88.7374C53.2754 88.7374 53.1589 88.7143 53.0473 88.6682C52.9409 88.6169 52.8471 88.5503 52.766 88.4683C52.6849 88.3863 52.619 88.289 52.5683 88.1762C52.5227 88.0635 52.4999 87.9456 52.4999 87.8226C52.4999 87.6996 52.5227 87.5818 52.5683 87.469C52.619 87.3563 52.6849 87.2589 52.766 87.1769C52.8471 87.0949 52.9409 87.0309 53.0473 86.9848C53.1589 86.9335 53.2754 86.9079 53.3971 86.9079C53.5187 86.9079 53.6353 86.9335 53.7468 86.9848C53.8584 87.0309 53.9547 87.0949 54.0358 87.1769C54.1169 87.2589 54.1802 87.3563 54.2258 87.469C54.2765 87.5818 54.3019 87.6996 54.3019 87.8226Z" fill="white"/>
<path d="M57.8221 94.9098C57.7968 94.8483 57.7588 94.7612 57.7081 94.6485C57.6625 94.5306 57.6143 94.4102 57.5636 94.2872C57.5129 94.1591 57.4648 94.0412 57.4192 93.9336C57.3736 93.8208 57.3406 93.7363 57.3203 93.6799C57.1987 93.3776 57.0897 93.1085 56.9934 92.8728C56.8971 92.632 56.816 92.4167 56.7501 92.2271C56.6893 92.0375 56.6411 91.8659 56.6056 91.7121C56.5752 91.5584 56.56 91.4123 56.56 91.274C56.56 91.2227 56.56 91.174 56.56 91.1279C56.5651 91.0767 56.5702 91.0306 56.5752 90.9896C56.6107 90.7846 56.6867 90.618 56.8033 90.4899C56.925 90.3567 57.0694 90.2542 57.2367 90.1825C57.409 90.1107 57.5966 90.062 57.7993 90.0364C58.0072 90.0108 58.2124 89.998 58.4152 89.998H61.2284C61.4311 89.998 61.6339 90.0108 61.8366 90.0364C62.0444 90.062 62.232 90.1107 62.3993 90.1825C62.5716 90.2542 62.716 90.3567 62.8326 90.4899C62.9543 90.618 63.0303 90.7846 63.0607 90.9896C63.0759 91.0818 63.0835 91.1843 63.0835 91.297C63.0835 91.5686 63.0379 91.8325 62.9467 92.0888C62.8605 92.3399 62.7642 92.5961 62.6578 92.8574V92.8421L61.829 94.9098H63.8667V96.7316H55.7693V94.9098H57.8221ZM58.476 91.812L59.8294 95.0174L61.3272 91.812H58.476Z" fill="white"/>
<path d="M68.2157 94.9098V91.812H66.3757V94.9098H68.2157ZM63.783 94.9098H64.5738V92.0119C64.5738 91.2996 64.7284 90.7871 65.0376 90.4745C65.3467 90.1568 65.7928 89.998 66.3757 89.998H68.2157C68.7986 89.998 69.2447 90.1568 69.5538 90.4745C69.863 90.7871 70.0176 91.2996 70.0176 92.0119V94.7099C70.0176 95.0687 69.9771 95.3761 69.896 95.6324C69.82 95.8835 69.7059 96.091 69.5538 96.255C69.4018 96.419 69.2142 96.5394 68.9912 96.6163C68.7682 96.6931 68.5122 96.7316 68.2233 96.7316H63.783V94.9098Z" fill="white"/>
<path d="M72.7092 94.9098H73.4923V96.7316H72.7092C72.4202 96.7316 72.1643 96.6931 71.9412 96.6163C71.7182 96.5394 71.5281 96.419 71.371 96.255C71.2189 96.091 71.1023 95.8835 71.0212 95.6324C70.9452 95.3761 70.9072 95.0687 70.9072 94.7099V87.9379C70.9072 87.8303 70.9452 87.7381 71.0212 87.6612C71.0973 87.5843 71.1885 87.5459 71.295 87.5459H72.3214C72.4278 87.5459 72.5191 87.5843 72.5951 87.6612C72.6711 87.7381 72.7092 87.8303 72.7092 87.9379V94.9098Z" fill="white"/>
<path d="M74.5567 90.0364C74.6936 90.0159 74.8203 90.0057 74.9369 90.0057C75.0585 90.0005 75.1777 89.998 75.2942 89.998C75.8315 89.998 76.3257 90.0518 76.7769 90.1594C77.228 90.2619 77.6259 90.4412 77.9706 90.6975C78.3152 90.9537 78.6016 91.2996 78.8297 91.7352C79.0578 92.1708 79.22 92.7191 79.3163 93.3801L79.3239 94.9098H80.1983V96.7316H73.4391V94.9098H77.5828V93.3033C77.5372 93.0214 77.4561 92.7883 77.3395 92.6038C77.228 92.4193 77.0911 92.2758 76.9289 92.1733C76.7718 92.0657 76.5944 91.9888 76.3967 91.9427C76.199 91.8966 75.9937 91.8684 75.7808 91.8582C75.573 91.8428 75.3601 91.8402 75.1422 91.8505C74.9242 91.8556 74.7139 91.8582 74.5111 91.8582C74.4047 91.8582 74.3134 91.8223 74.2374 91.7505C74.1614 91.6737 74.1233 91.5814 74.1233 91.4738V90.4207C74.1233 90.3183 74.1664 90.2311 74.2526 90.1594C74.3388 90.0877 74.4402 90.0467 74.5567 90.0364ZM77.3623 98.8915C77.3623 99.0196 77.337 99.1375 77.2863 99.2451C77.2407 99.3579 77.1773 99.4552 77.0962 99.5372C77.0151 99.6243 76.9188 99.691 76.8073 99.7371C76.6958 99.7883 76.5792 99.8139 76.4575 99.8139C76.3359 99.8139 76.2193 99.7883 76.1078 99.7371C76.0013 99.691 75.9076 99.6243 75.8265 99.5372C75.7454 99.4552 75.6795 99.3579 75.6288 99.2451C75.5832 99.1375 75.5603 99.0196 75.5603 98.8915C75.5603 98.7685 75.5832 98.6507 75.6288 98.5379C75.6795 98.4303 75.7454 98.3355 75.8265 98.2535C75.9076 98.1715 76.0013 98.1049 76.1078 98.0537C76.2193 98.0076 76.3359 97.9845 76.4575 97.9845C76.5792 97.9845 76.6958 98.0076 76.8073 98.0537C76.9188 98.1049 77.0151 98.1715 77.0962 98.2535C77.1773 98.3355 77.2407 98.4303 77.2863 98.5379C77.337 98.6507 77.3623 98.7685 77.3623 98.8915Z" fill="white"/>
<path d="M80.8978 94.9098V87.9379C80.8978 87.8303 80.9358 87.7381 81.0118 87.6612C81.0879 87.5843 81.1791 87.5459 81.2855 87.5459H82.3196C82.426 87.5459 82.5147 87.5843 82.5857 87.6612C82.6566 87.7381 82.6921 87.8303 82.6921 87.9379V94.7099C82.6921 95.0687 82.6516 95.3761 82.5705 95.6324C82.4944 95.8835 82.3804 96.091 82.2283 96.255C82.0763 96.419 81.8887 96.5394 81.6657 96.6163C81.4427 96.6931 81.1867 96.7316 80.8978 96.7316H80.1146V94.9098H80.8978Z" fill="white"/>
<path d="M83.825 87.9379C83.825 87.8303 83.863 87.7381 83.939 87.6612C84.0151 87.5843 84.1063 87.5459 84.2128 87.5459H85.2468C85.3482 87.5459 85.4369 87.5843 85.5129 87.6612C85.5889 87.7381 85.627 87.8303 85.627 87.9379V96.3933C85.627 96.501 85.5889 96.5932 85.5129 96.6701C85.4369 96.7418 85.3482 96.7777 85.2468 96.7777H84.2128C84.1063 96.7777 84.0151 96.7418 83.939 96.6701C83.863 96.5932 83.825 96.501 83.825 96.3933V87.9379Z" fill="white"/>
<path d="M1.22887 102.924H1.97438V108.354H1.22887V102.924Z" fill="white"/>
<path d="M4.54888 107.052H5.2654C5.2654 107.206 5.27506 107.32 5.29439 107.396C5.31372 107.468 5.35514 107.536 5.41864 107.601C5.57603 107.763 5.81487 107.844 6.13516 107.844C6.39195 107.844 6.59765 107.792 6.75228 107.689C6.9069 107.583 6.98422 107.442 6.98422 107.266C6.98422 107.182 6.9566 107.107 6.90138 107.04C6.84892 106.973 6.74814 106.906 6.59904 106.839L5.36066 106.449C4.90507 106.24 4.67727 105.901 4.67727 105.432C4.67727 105.088 4.81119 104.811 5.07902 104.598C5.34961 104.383 5.70442 104.276 6.14345 104.276C6.72881 104.276 7.15127 104.464 7.41081 104.841C7.47984 104.95 7.52678 105.049 7.55163 105.139C7.57925 105.228 7.59305 105.361 7.59305 105.536H6.90138C6.90138 105.352 6.85996 105.217 6.77713 105.13C6.61698 104.968 6.39609 104.887 6.11445 104.887C5.90184 104.887 5.72375 104.935 5.58017 105.03C5.43935 105.122 5.36894 105.236 5.36894 105.373C5.36894 105.588 5.48215 105.74 5.70856 105.829L6.85996 106.19C6.94832 106.229 7.03944 106.269 7.13332 106.311C7.16645 106.325 7.20235 106.345 7.241 106.37C7.55025 106.559 7.70488 106.827 7.70488 107.174C7.70488 107.52 7.57786 107.814 7.32384 108.057C7.0422 108.325 6.64321 108.459 6.12688 108.459C5.61607 108.459 5.22536 108.34 4.95477 108.103C4.68418 107.863 4.54888 107.513 4.54888 107.052Z" fill="white"/>
<path d="M10.151 102.886H10.8302V108.354H10.151V102.886Z" fill="white"/>
<path d="M13.5 105.616C13.5 105.421 13.5166 105.271 13.5497 105.168C13.5828 105.065 13.6408 104.953 13.7236 104.833C13.9887 104.462 14.4388 104.276 15.0738 104.276C15.7144 104.276 16.1521 104.435 16.3868 104.753C16.5138 104.915 16.5773 105.173 16.5773 105.528V107.425C16.5773 107.698 16.6574 107.835 16.8175 107.835L17.0122 107.818V108.342C16.91 108.375 16.8299 108.398 16.772 108.409C16.7167 108.417 16.6574 108.421 16.5939 108.421C16.2266 108.421 16.0168 108.22 15.9643 107.818C15.5833 108.246 15.1332 108.459 14.6141 108.459C14.2275 108.459 13.9183 108.353 13.6864 108.141C13.4544 107.926 13.3385 107.637 13.3385 107.274C13.3385 106.772 13.5566 106.418 13.9929 106.215C14.2855 106.075 14.7977 105.963 15.5294 105.88L15.9229 105.825V105.633C15.9229 105.507 15.9146 105.411 15.898 105.344C15.8842 105.274 15.8552 105.211 15.8111 105.155C15.6703 104.977 15.4245 104.887 15.0738 104.887C14.7094 104.887 14.4595 104.989 14.3242 105.193C14.2772 105.252 14.2455 105.312 14.2289 105.373C14.2124 105.432 14.2041 105.513 14.2041 105.616H13.5ZM15.9146 106.361C15.7407 106.386 15.5791 106.412 15.43 106.437C15.2837 106.459 15.1028 106.494 14.8875 106.541C14.5837 106.611 14.3697 106.698 14.2455 106.801C14.124 106.901 14.0633 107.047 14.0633 107.236C14.0633 107.426 14.1254 107.576 14.2496 107.684C14.3739 107.791 14.5465 107.844 14.7674 107.844C15.0849 107.844 15.3555 107.753 15.5791 107.571C15.8028 107.387 15.9146 107.169 15.9146 106.918V106.361Z" fill="white"/>
<path d="M24.1177 108.363V105.901C24.1177 105.496 24.0639 105.22 23.9562 105.072C23.8485 104.924 23.6607 104.85 23.3929 104.85C23.0726 104.85 22.8227 104.95 22.6433 105.151C22.4666 105.352 22.3782 105.634 22.3782 105.997V108.363H21.7031V105.901C21.7031 105.496 21.6479 105.22 21.5374 105.072C21.4297 104.924 21.2434 104.85 20.9783 104.85C20.6608 104.85 20.4123 104.952 20.2328 105.155C20.0533 105.359 19.9636 105.64 19.9636 105.997V108.363H19.2967V104.364H19.9304V104.929C20.0795 104.703 20.2549 104.536 20.4564 104.427C20.658 104.315 20.8955 104.259 21.1688 104.259C21.4146 104.259 21.6244 104.311 21.7984 104.414C21.9723 104.515 22.1228 104.672 22.2498 104.887C22.421 104.672 22.6088 104.515 22.8131 104.414C23.0174 104.311 23.2535 104.259 23.5213 104.259C23.7781 104.259 24.0004 104.307 24.1881 104.402C24.3787 104.494 24.525 104.629 24.6272 104.808C24.6824 104.908 24.7224 105.03 24.7473 105.172C24.7721 105.314 24.7845 105.539 24.7845 105.846V108.363H24.1177Z" fill="white"/>
<path d="M27.3176 102.924H27.9969V103.698H27.3176V102.924ZM27.3176 104.377H27.9969V108.354H27.3176V104.377Z" fill="white"/>
<path d="M33.1931 106.939H33.8847C33.8378 107.31 33.737 107.609 33.5824 107.835C33.425 108.045 33.2359 108.202 33.015 108.308C32.7941 108.414 32.5456 108.467 32.2695 108.467C31.6896 108.467 31.2409 108.29 30.9234 107.936C30.6059 107.578 30.4471 107.077 30.4471 106.432C30.4471 105.746 30.6045 105.215 30.9193 104.841C31.234 104.464 31.68 104.276 32.257 104.276C32.7182 104.276 33.0909 104.407 33.3753 104.67C33.6625 104.929 33.8323 105.292 33.8847 105.758H33.1931C33.0688 105.183 32.7568 104.896 32.257 104.896C31.9119 104.896 31.6441 105.021 31.4536 105.273C31.263 105.524 31.1678 105.876 31.1678 106.328C31.1678 106.816 31.2617 107.192 31.4494 107.454C31.6372 107.717 31.9091 107.848 32.2653 107.848C32.7292 107.848 33.0385 107.545 33.1931 106.939Z" fill="white"/>
<path d="M39.6426 102.915H40.3964V106.303C40.3964 106.543 40.4129 106.737 40.4461 106.885C40.4792 107.03 40.5413 107.16 40.6325 107.274C40.7429 107.428 40.8975 107.549 41.0963 107.638C41.2979 107.728 41.516 107.772 41.7507 107.772C42.2256 107.772 42.5846 107.606 42.8276 107.274C42.9159 107.151 42.9794 107.019 43.0181 106.876C43.0595 106.734 43.0802 106.551 43.0802 106.328V102.915H43.834V106.332C43.834 106.631 43.8064 106.88 43.7512 107.081C43.6987 107.28 43.6021 107.476 43.4613 107.672C43.0747 108.197 42.4976 108.459 41.73 108.459C40.9348 108.459 40.3494 108.198 39.9739 107.676C39.8911 107.55 39.8262 107.426 39.7793 107.303C39.7323 107.178 39.6978 107.028 39.6757 106.855C39.6536 106.682 39.6426 106.526 39.6426 106.386V102.915Z" fill="white"/>
<path d="M46.57 104.377H47.2493V104.896C47.4564 104.658 47.6469 104.497 47.8208 104.41C47.9948 104.321 48.2088 104.276 48.4628 104.276C48.7113 104.276 48.9253 104.323 49.1048 104.418C49.287 104.513 49.4361 104.651 49.5521 104.833C49.599 104.922 49.6363 105.013 49.6639 105.105C49.6915 105.197 49.7053 105.306 49.7053 105.432L49.7136 105.821V108.354H49.0344V105.951C49.0344 105.58 48.9902 105.33 48.9018 105.201C48.7693 104.998 48.5553 104.896 48.2599 104.896C47.8595 104.896 47.5682 105.065 47.386 105.402C47.3473 105.467 47.3155 105.539 47.2907 105.62C47.2686 105.701 47.2576 105.792 47.2576 105.892L47.2493 106.269V108.354H46.57V104.377Z" fill="white"/>
<path d="M52.3668 102.924H53.046V103.698H52.3668V102.924ZM52.3668 104.377H53.046V108.354H52.3668V104.377Z" fill="white"/>
<path d="M56.6932 108.363L55.2312 104.364H55.9436L57.0494 107.567L58.1304 104.364H58.8428L57.3973 108.363H56.6932Z" fill="white"/>
<path d="M64.3124 106.587H61.4587C61.4587 106.995 61.5554 107.306 61.7486 107.521C61.9419 107.736 62.2139 107.844 62.5646 107.844C63.103 107.844 63.4316 107.577 63.5503 107.044H64.2585C64.1564 107.49 63.9562 107.838 63.658 108.086C63.3598 108.335 62.987 108.459 62.5397 108.459C61.9847 108.459 61.5471 108.273 61.2268 107.902C60.9065 107.528 60.7463 107.014 60.7463 106.361C60.7463 105.641 60.9534 105.098 61.3676 104.732C61.7045 104.434 62.1131 104.284 62.5936 104.284C63.1872 104.284 63.6469 104.499 63.9727 104.929C64.0942 105.105 64.1812 105.298 64.2337 105.507C64.2889 105.716 64.3165 105.972 64.3165 106.273L64.3124 106.587ZM63.6331 105.968C63.6331 105.633 63.5351 105.37 63.3391 105.18C63.1458 104.991 62.8918 104.896 62.577 104.896C61.9474 104.896 61.583 105.253 61.4836 105.968H63.6331Z" fill="white"/>
<path d="M66.7543 104.377H67.4377V105.038C67.6917 104.53 68.0107 104.276 68.3945 104.276C68.4386 104.276 68.4759 104.276 68.5063 104.276C68.5394 104.276 68.5988 104.286 68.6844 104.305V105.038L68.469 105.017C68.0963 105.017 67.8188 105.153 67.6365 105.423C67.5647 105.527 67.515 105.648 67.4874 105.788C67.4598 105.927 67.446 106.124 67.446 106.378V108.354H66.7543V104.377Z" fill="white"/>
<path d="M70.6873 107.052H71.4038C71.4038 107.206 71.4135 107.32 71.4328 107.396C71.4522 107.468 71.4936 107.536 71.5571 107.601C71.7145 107.763 71.9533 107.844 72.2736 107.844C72.5304 107.844 72.7361 107.792 72.8907 107.689C73.0453 107.583 73.1227 107.442 73.1227 107.266C73.1227 107.182 73.0951 107.107 73.0398 107.04C72.9874 106.973 72.8866 106.906 72.7375 106.839L71.4991 106.449C71.0435 106.24 70.8157 105.901 70.8157 105.432C70.8157 105.088 70.9496 104.811 71.2175 104.598C71.4881 104.383 71.8429 104.276 72.2819 104.276C72.8672 104.276 73.2897 104.464 73.5493 104.841C73.6183 104.95 73.6652 105.049 73.6901 105.139C73.7177 105.228 73.7315 105.361 73.7315 105.536H73.0398C73.0398 105.352 72.9984 105.217 72.9156 105.13C72.7554 104.968 72.5345 104.887 72.2529 104.887C72.0403 104.887 71.8622 104.935 71.7186 105.03C71.5778 105.122 71.5074 105.236 71.5074 105.373C71.5074 105.588 71.6206 105.74 71.847 105.829L72.9984 106.19C73.0868 106.229 73.1779 106.269 73.2718 106.311C73.3049 106.325 73.3408 106.345 73.3794 106.37C73.6887 106.559 73.8433 106.827 73.8433 107.174C73.8433 107.52 73.7163 107.814 73.4623 108.057C73.1806 108.325 72.7817 108.459 72.2653 108.459C71.7545 108.459 71.3638 108.34 71.0932 108.103C70.8226 107.863 70.6873 107.513 70.6873 107.052Z" fill="white"/>
<path d="M76.2894 102.924H76.9687V103.698H76.2894V102.924ZM76.2894 104.377H76.9687V108.354H76.2894V104.377Z" fill="white"/>
<path d="M79.2533 104.377H79.771V103.401H80.4461V104.377H81.1005V104.954H80.4461V107.366C80.4461 107.556 80.4751 107.686 80.533 107.756C80.591 107.823 80.7056 107.856 80.8768 107.856L81.1005 107.848V108.43L80.9886 108.434L80.5952 108.459C80.1865 108.459 79.9339 108.31 79.8372 108.011C79.7931 107.894 79.771 107.662 79.771 107.316V104.954H79.2533V104.377Z" fill="white"/>
<path d="M83.8365 104.377L84.8926 107.542L85.9281 104.377H86.6653L85.079 108.802C84.9962 109.051 84.9147 109.249 84.8346 109.397C84.7573 109.548 84.6745 109.668 84.5861 109.757C84.4287 109.919 84.2424 110 84.027 110L83.7536 109.975C83.6625 109.975 83.6059 109.972 83.5838 109.966C83.5314 109.941 83.4886 109.926 83.4554 109.92V109.28L83.53 109.309C83.5852 109.329 83.6404 109.343 83.6957 109.351C83.7537 109.362 83.8006 109.368 83.8365 109.368C84.0049 109.368 84.1305 109.31 84.2134 109.196C84.299 109.082 84.4039 108.828 84.5282 108.434L83.0786 104.377H83.8365Z" fill="white"/>
<path d="M10.0691 41.1048L10.0575 45.8933L14.794 45.9051L14.8056 41.1165L10.0691 41.1048Z" fill="white"/>
<path d="M8.07262 41.101L8.06057 45.8895L3.3241 45.8773C3.33133 43.2333 5.45731 41.0936 8.07262 41.0985V41.101Z" fill="white"/>
<path d="M23.5258 47.9243L23.4752 68.37L21.477 68.3651L21.5276 47.9194L16.7911 47.9073L16.7405 68.3529L14.7422 68.3481L14.7929 47.9024L3.32168 47.8731L3.27107 68.3213C3.26625 70.9678 5.38018 73.1171 7.99789 73.122L34.9415 73.1902L35.0042 47.9511L23.5282 47.9219L23.5258 47.9243ZM10.0034 68.3359L8.00513 68.331L8.04369 52.6739L10.0419 52.6787L10.0034 68.3359ZM30.2123 68.3871L28.2141 68.3822L28.2526 52.7275L30.2509 52.7323L30.2123 68.3871Z" fill="white"/>
<path d="M37.0049 47.9609L36.9615 66.3864L41.6979 66.3961L41.7413 47.9609H37.0049Z" fill="white"/>
<path d="M20.0919 75.1562L20.0803 79.9447L24.8168 79.9564L24.8284 75.1679L20.0919 75.1562Z" fill="white"/>
<path d="M13.3552 75.1562L13.3436 79.9447L18.0801 79.9564L18.0917 75.1678L13.3552 75.1562Z" fill="white"/>
<path d="M63.9461 48.0242L63.8955 68.4699L61.8997 68.465L61.9479 48.0193L57.2114 48.0072L57.1608 68.4529L55.1625 68.448L55.2132 48.0023L50.4767 47.9925L50.4261 68.4382L48.4278 68.4334L48.4785 47.9609H43.7396L43.6914 68.4212L36.9567 68.4041L36.9446 73.1951L68.6223 73.2755L68.6826 48.0364L63.9461 48.0242Z" fill="white"/>
<path d="M70.6796 47.974L70.6352 66.3824L75.374 66.3941L75.4185 47.9857L70.6796 47.974Z" fill="white"/>
<path d="M88.8915 48.1046L88.8409 68.5357C88.8337 71.1798 86.7077 73.3194 84.0924 73.3145L84.1526 48.0949L88.8891 48.1071L88.8915 48.1046Z" fill="white"/>
<path d="M88.9301 48.0998L88.9132 54.8744L70.7483 36.4172L70.7652 29.6426L79.8476 38.8712L88.9301 48.0998Z" fill="white"/>
<path d="M88.9735 29.6889L88.959 36.4635L84.2081 41.2399L83.1909 42.2682L82.2026 43.2576L70.7025 54.8281L70.7194 48.0535L75.4679 43.2771L76.4899 42.2512L77.471 41.2618L79.8476 38.8712L88.9735 29.6889Z" fill="white"/>
<path d="M82.1375 51.2921L79.7826 48.4677L77.4035 51.2751L77.3987 51.2799L77.3697 65.8429L82.1062 65.8527L82.1375 51.2921Z" fill="white"/>
<path d="M88.9855 6.97444L88.9903 4.97373C88.9976 2.32968 86.8812 0.177892 84.2635 0.173019L84.2081 23.0897L84.225 23.0727L84.2081 29.879L84.2346 29.8522L84.2081 41.1399L88.9566 36.3612L89 18.233H88.9735L89 6.97444H88.9831H88.9855Z" fill="white"/>
<path d="M75.5282 0.151084C72.9129 0.143773 70.7845 2.28338 70.7796 4.92986L70.7483 18.2671L70.7652 18.2841L70.7483 25.0563L70.7748 25.0831L70.7483 36.3149L75.4751 41.1156L75.5306 18.1989H75.5041L75.5306 6.94032H75.5137L75.5306 0.151084H75.5282Z" fill="white"/>
<path d="M75.4197 45.2949L75.3643 66.1914L70.6278 66.1792L70.6712 50.0712L75.4197 45.2949Z" fill="white"/>
<path d="M77.3842 62.7164L77.3697 68.5065L70.6302 68.4894L70.6206 73.2804L82.0941 73.3096L82.1207 62.7164H77.3842Z" fill="white"/>
<path d="M77.1889 0V32.0795C77.1889 32.2087 77.2926 32.3159 77.4228 32.3159C77.5529 32.3159 77.6566 32.2111 77.6566 32.0795V0H77.1889Z" fill="white"/>
<path d="M82.1375 0V32.0795C82.1375 32.2087 82.2412 32.3159 82.3714 32.3159C82.5015 32.3159 82.6052 32.2111 82.6052 32.0795V0H82.1375Z" fill="white"/>
<path d="M79.6211 0V34.6919C79.6211 34.821 79.7247 34.9283 79.8549 34.9283C79.985 34.9283 80.0887 34.8235 80.0887 34.6919V0H79.6211Z" fill="white"/>
<path d="M75.3498 78.7561H70.6206V79.9575H75.3498V78.7561Z" fill="white"/>
<path d="M75.3498 75.1568H70.6206V76.3582H75.3498V75.1568Z" fill="white"/>
<path d="M72.9538 76.0853H70.6206V77.2867H72.9538V76.0853Z" fill="white"/>
<path d="M75.3474 77.9105H73.0141V79.1119H75.3474V77.9105Z" fill="white"/>
<path d="M75.3498 76.9577H70.6206V78.1591H75.3498V76.9577Z" fill="white"/>
<path d="M42.1608 13.9172L42.6043 0.570259L43.0454 13.9172H42.1608Z" fill="white"/>
<path d="M42.6235 10.4592C43.2945 10.4592 43.8384 9.90936 43.8384 9.23104C43.8384 8.55272 43.2945 8.00284 42.6235 8.00284C41.9526 8.00284 41.4087 8.55272 41.4087 9.23104C41.4087 9.90936 41.9526 10.4592 42.6235 10.4592Z" fill="white"/>
<path d="M42.6235 6.49195C42.9723 6.49195 43.2551 6.2061 43.2551 5.85348C43.2551 5.50086 42.9723 5.21501 42.6235 5.21501C42.2748 5.21501 41.992 5.50086 41.992 5.85348C41.992 6.2061 42.2748 6.49195 42.6235 6.49195Z" fill="white"/>
<path d="M68.5982 39.4414L63.7485 33.0104H57.9321L62.0274 28.8701L60.9692 20.9453L60.9789 20.877H60.962L60.9596 20.8551L60.8921 20.8649L53.051 19.7951L48.9413 23.95V18.0965L43.0357 13.5468L42.6452 13.2471L42.6067 13.1959L42.5922 13.2056L42.5777 13.1959L42.5392 13.2471L36.2432 18.0965V23.9768L32.1479 19.8365L24.3092 20.9063L24.2417 20.8965V20.9136L24.22 20.916L24.2296 20.9843L23.1715 28.9091L27.2837 33.0665H21.4938L16.6995 39.4268L16.6465 39.4682L16.6561 39.4829L16.6465 39.4975L16.6995 39.5389L21.4938 45.9017H40.1408V45.8944H63.7485L68.5452 39.5316L68.5862 39.478L68.5982 39.4634L68.5813 39.4512L68.5982 39.439V39.4414ZM31.256 41.9173H23.4487L21.6192 39.4877L23.4487 37.0606H31.2295L33.6447 39.5024L31.2536 41.9173H31.256ZM32.8638 33.0714L27.3439 27.4908L27.7489 24.4642L30.7426 24.0548L36.2456 29.6182V33.0714H32.8638ZM40.189 20.0729L42.5922 18.2233L44.993 20.0729V27.9392L42.5777 30.381L40.189 27.966V20.0729ZM45.7595 41.8442H39.4876V37.1849L42.6308 34.7211L45.7595 37.1946V41.8442ZM48.9388 29.5939L54.4587 24.0133L57.4524 24.4228L57.855 27.4494L52.352 33.0129H48.9388V29.5939ZM63.6255 39.4804L61.7936 41.91H54.0658L51.5951 39.4146L53.9838 36.9997H61.7912L63.6424 39.4536L63.6231 39.4804H63.6255Z" fill="white"/>
</svg>
